<?xml version="1.0" encoding="iso-8859-1"?>
<svg version="1.1" xmlns="http://www.w3.org/2000/svg" xmlns:xlink="http://www.w3.org/1999/xlink" x="0px" y="0px"
	viewBox="0 0 512 512" style="enable-background:new 0 0 512 512;" xml:space="preserve">
	<path style="fill:#2B292C;" d="M367.854,59.996h69.135c8.29,0,14.999-6.709,14.999-14.999s-6.709-14.999-14.999-14.999H285.998
	c-8.29,0-14.999,6.709-14.999,14.999c0,0.361,0.179,0.661,0.205,1.014c-0.569,7.795,4.818,14.84,12.67,15.962
	c85.073,12.157,153.979,80.063,166.136,165.136c1.069,7.485,7.485,12.875,14.838,12.875c0.703,0,1.421-0.044,2.139-0.146
	c8.202-1.172,13.9-8.773,12.728-16.977C469.728,153.062,426.88,93.775,367.854,59.996z" />
	<path style="fill:#57555C;" d="M241.001,44.997c0-8.291-6.709-14.999-14.999-14.999H75.011c-8.291,0-14.999,6.709-14.999,14.999
	s6.709,14.999,14.999,14.999h70.135C86.119,93.775,42.272,153.062,32.285,222.863c-1.172,8.203,4.526,15.805,12.728,16.977
	c0.718,0.103,1.436,0.146,2.139,0.146c7.354,0,13.769-5.391,14.838-12.875c12.156-85.073,81.063-152.979,166.136-165.136
	c7.853-1.122,13.239-8.168,12.67-15.962C240.821,45.658,241.001,45.358,241.001,44.997z" />
	<path style="fill:#FF4A4A;" d="M390.091,491.57L270.098,176.589c-2.098-6-8.099-8.698-14.098-8.698s-12,2.699-14.098,8.698
	L121.909,491.57c-5.101,13.499,10.198,25.798,22.199,17.998L256,439.673l111.892,69.895
	C380.193,517.369,395.192,505.07,390.091,491.57z" />
	<g>
		<path style="fill:#1689FC;" d="M496.985,299.982h-59.996c-8.291,0-14.999-6.709-14.999-14.999v-59.996
		c0-8.29,6.709-14.999,14.999-14.999h59.996c8.291,0,14.999,6.709,14.999,14.999v59.996
		C511.985,293.273,505.276,299.982,496.985,299.982z" />
		<path style="fill:#1689FC;" d="M466.987,89.995c-24.813,0-44.997-20.185-44.997-44.997S442.175,0,466.987,0
		c24.812,0,44.997,20.185,44.997,44.997S491.8,89.995,466.987,89.995z" />
	</g>
	<g>
		<path style="fill:#1BA9EF;" d="M45.013,89.995C20.2,89.995,0.016,69.81,0.016,44.997S20.2,0,45.013,0S90.01,20.185,90.01,44.997
		S69.825,89.995,45.013,89.995z" />
		<path style="fill:#1BA9EF;" d="M75.011,299.982H15.015c-8.29,0-14.999-6.709-14.999-14.999v-59.996
		c0-8.29,6.709-14.999,14.999-14.999h59.996c8.29,0,14.999,6.709,14.999,14.999v59.996C90.01,293.273,83.302,299.982,75.011,299.982
		z" />
	</g>
	<path style="fill:#E61E14;" d="M367.892,509.568L256,439.673V167.89c6,0,12,2.699,14.098,8.698l119.993,314.981
	C395.192,505.07,380.193,517.369,367.892,509.568z" />
	<path style="fill:#1BA9EF;" d="M285.998,0h-59.996c-8.4,0-14.999,6.599-14.999,14.999v59.996c0,8.4,6.599,14.999,14.999,14.999
	h59.996c8.4,0,14.999-6.599,14.999-14.999V14.999C300.997,6.599,294.399,0,285.998,0z" />
	<path style="fill:#1689FC;" d="M285.998,89.995H256V0h29.998c8.4,0,14.999,6.599,14.999,14.999v59.996
	C300.997,83.396,294.399,89.995,285.998,89.995z" />
</svg>