<?xml version="1.0" standalone="no"?>
<!DOCTYPE svg PUBLIC "-//W3C//DTD SVG 20010904//EN" "http://www.w3.org/TR/2001/REC-SVG-20010904/DTD/svg10.dtd">
<svg version="1.0" xmlns="http://www.w3.org/2000/svg" width="700.000000pt" height="700.000000pt"
  viewBox="0 0 700.000000 700.000000" preserveAspectRatio="xMidYMid meet">
  <g transform="translate(0.000000,700.000000) scale(0.100000,-0.100000)" fill="#000000" stroke="none">
    <path d="M476 6984 c-227 -54 -407 -237 -461 -466 -20 -86 -13 -235 15 -318
67 -201 227 -353 428 -409 277 -76 585 66 708 326 l29 62 395 0 c366 0 393 -1
365 -16 -16 -8 -86 -53 -155 -99 -466 -309 -853 -750 -1090 -1239 -96 -199
-195 -478 -225 -636 -12 -62 -4 -59 -158 -59 -78 0 -157 -4 -176 -10 -57 -16
-100 -52 -127 -106 l-25 -51 3 -464 3 -464 27 -38 c14 -22 43 -51 65 -65 l38
-27 458 -3 c294 -2 470 1 495 8 40 11 86 48 117 95 19 29 20 48 20 510 l0 480
-30 42 c-47 66 -93 87 -207 93 l-96 5 33 115 c238 825 882 1498 1710 1786 66
23 244 74 246 71 1 -1 2 -42 4 -92 2 -54 9 -104 18 -126 21 -46 76 -95 124
-108 41 -12 887 -16 942 -5 17 4 51 24 75 45 53 47 76 106 75 194 -2 103 -8
96 69 75 504 -134 999 -442 1332 -830 12 -14 31 -36 43 -50 95 -108 224 -301
317 -475 68 -125 186 -424 205 -516 2 -9 8 -32 13 -52 l10 -35 -97 -4 c-130
-6 -180 -33 -222 -123 -17 -37 -19 -73 -19 -486 0 -316 3 -456 12 -480 16 -48
46 -86 88 -112 35 -22 39 -22 493 -25 289 -2 471 1 495 7 47 13 99 63 123 117
17 37 18 79 19 488 0 424 -1 449 -19 489 -50 106 -83 121 -289 127 l-164 5
-33 130 c-89 343 -184 560 -398 909 -18 30 -20 32 -116 161 -49 66 -107 140
-128 165 -60 71 -261 271 -345 343 -124 106 -326 250 -430 307 -21 11 -38 23
-38 25 0 3 172 5 383 4 l382 0 32 -67 c56 -118 152 -213 281 -278 256 -130
578 -52 754 181 59 78 85 132 115 240 13 43 9 222 -4 275 -31 117 -109 244
-196 320 -220 190 -563 197 -782 16 -89 -73 -134 -131 -176 -223 l-24 -53
-842 0 c-796 0 -843 1 -844 18 0 9 -1 69 -3 132 -3 124 -12 154 -63 202 -61
58 -62 58 -555 58 -432 0 -453 -1 -493 -20 -23 -11 -53 -33 -66 -48 -47 -53
-53 -76 -54 -210 l-1 -127 -846 -3 -846 -2 -12 34 c-45 138 -218 296 -380 347
-83 27 -241 33 -324 13z" />
    <path d="M3457 4700 c-85 -15 -129 -56 -166 -153 -21 -58 -449 -1182 -588
-1547 -41 -107 -78 -207 -83 -221 -4 -15 -15 -42 -23 -60 -8 -19 -47 -119 -87
-224 -39 -104 -96 -253 -125 -330 -29 -77 -89 -234 -133 -350 -44 -115 -122
-318 -172 -450 -51 -132 -105 -274 -120 -315 -15 -41 -88 -235 -163 -430 -74
-195 -138 -369 -140 -387 -13 -84 33 -166 116 -208 56 -27 96 -31 148 -13 27
9 508 303 659 403 19 13 197 124 395 247 198 124 397 248 441 276 l82 51 448
-281 c247 -154 461 -288 476 -297 15 -9 163 -101 327 -204 165 -103 314 -193
331 -199 78 -27 185 14 237 91 29 43 39 114 23 160 -15 45 -286 761 -300 793
-5 13 -143 374 -306 803 -162 429 -306 807 -319 840 -13 33 -182 476 -376 985
-193 509 -360 937 -371 953 -38 54 -124 81 -211 67z" />
  </g>
</svg>