<svg width="643" height="190" viewBox="0 0 643 190" fill="none" xmlns="http://www.w3.org/2000/svg">
<g filter="url(#filter0_dd)">
<rect x="28" y="18" width="600" height="150" rx="25" fill="white"/>
</g>
<path d="M447 182L459.5 153.167L472 124.333L484.5 153.167L497 124.333L509.5 95.4999L522 124.333L534.5 95.4999L547 66.6665L559.5 95.4999L572 66.6665L584.5 37.8332L597 66.6665L609.5 37.8332L622 8.99985" stroke="#00C8F3" stroke-opacity="0.45" stroke-width="14" stroke-linecap="round" stroke-linejoin="round"/>
<path d="M154 54.5C154 54.5 157 54.5 159 54.5C161 54.5 162.5 56 164.5 56C166.5 56 168 54.5 170 54.5C172 54.5 173.5 56 175.5 56C177.5 56 178.5 52 181 52C183.5 52 185.5 58.5 187.5 58.5C189.5 58.5 191 49 195 49C199 49 200.5 64 205 64C209.5 64 210.5 39.5 217 39.5C223.5 39.5 224.5 79 232 79C239.5 79 238.5 29 247.5 29C256.5 29 263.499 90.5 280 90.5C296.5 90.5 289.984 7.00012 327.5 7.00002C365.016 6.99991 360 90.5 375 90.5C390 90.5 398.5 29 407.5 29C416.5 29 415.5 79 423 79C430.5 79 431.5 39.4999 438 39.4999C444.5 39.4999 445.5 63.9999 450 63.9999C454.5 63.9999 456 48.9999 460 48.9999C464 48.9999 465.5 58.4999 467.5 58.4999C469.5 58.4999 471.5 51.9999 474 51.9999C476.5 51.9999 477.5 56 479.5 56C481.5 56 483 54.5 485 54.5C487 54.5 488.5 56 490.5 56C492.5 56 494 54.5 496 54.5L501 54.5" stroke="#F1D900" stroke-opacity="0.56" stroke-width="13" stroke-linecap="round" stroke-linejoin="round"/>
<path d="M7 41C69.0541 41 141.45 86.171 141.45 156C141.45 84.0042 227.144 96.084 227.144 156C227.144 117.828 275.901 125.559 275.901 156C275.901 143.623 299.541 146.373 299.541 156C299.541 151.422 315.793 151.874 315.793 156C315.793 153.937 327.613 154.625 327.613 156H335" stroke="#E7006F" stroke-opacity="0.5" stroke-width="13" stroke-linecap="round" stroke-linejoin="round"/>
<path d="M76.4943 122H115.812V111.858H88.7955V97.9659H113.682V87.8239H88.7955V73.9602H115.699V63.8182H76.4943V122ZM137.695 122.824C144.143 122.824 148.32 120.011 150.45 115.949H150.791V122H162.268V92.5682C162.268 82.1705 153.462 77.7955 143.746 77.7955C133.291 77.7955 126.416 82.7955 124.74 90.75L135.933 91.6591C136.757 88.7614 139.342 86.6307 143.689 86.6307C147.808 86.6307 150.166 88.7045 150.166 92.2841V92.4545C150.166 95.267 147.183 95.6364 139.598 96.375C130.962 97.1705 123.206 100.068 123.206 109.812C123.206 118.449 129.371 122.824 137.695 122.824ZM141.161 114.472C137.439 114.472 134.768 112.739 134.768 109.415C134.768 106.006 137.581 104.33 141.842 103.733C144.484 103.364 148.803 102.739 150.251 101.773V106.403C150.251 110.977 146.473 114.472 141.161 114.472ZM207.964 90.8068C206.885 82.767 200.408 77.7955 189.385 77.7955C178.22 77.7955 170.862 82.9659 170.891 91.375C170.862 97.9091 174.982 102.142 183.504 103.847L191.061 105.352C194.868 106.119 196.601 107.511 196.658 109.699C196.601 112.284 193.788 114.131 189.555 114.131C185.237 114.131 182.368 112.284 181.629 108.733L169.726 109.358C170.862 117.71 177.964 122.852 189.527 122.852C200.834 122.852 208.93 117.085 208.959 108.477C208.93 102.17 204.811 98.392 196.345 96.6591L188.447 95.0682C184.385 94.1875 182.879 92.7955 182.908 90.6932C182.879 88.0795 185.834 86.375 189.584 86.375C193.788 86.375 196.288 88.6761 196.885 91.4886L207.964 90.8068ZM224.051 138.364C233.057 138.364 237.83 133.761 240.301 126.716L257.261 78.3636H244.449L235.33 110.409H234.875L225.841 78.3636H213.114L228.767 123.25L228.057 125.097C226.466 129.188 223.426 129.386 219.165 128.08L216.438 137.114C218.17 137.852 220.983 138.364 224.051 138.364ZM282.197 122H321.516V111.858H294.499V97.9659H319.385V87.8239H294.499V73.9602H321.402V63.8182H282.197V122ZM343.398 122.824C349.847 122.824 354.023 120.011 356.153 115.949H356.494V122H367.972V92.5682C367.972 82.1705 359.165 77.7955 349.449 77.7955C338.994 77.7955 332.119 82.7955 330.443 90.75L341.636 91.6591C342.46 88.7614 345.045 86.6307 349.392 86.6307C353.511 86.6307 355.869 88.7045 355.869 92.2841V92.4545C355.869 95.267 352.886 95.6364 345.301 96.375C336.665 97.1705 328.909 100.068 328.909 109.812C328.909 118.449 335.074 122.824 343.398 122.824ZM346.864 114.472C343.142 114.472 340.472 112.739 340.472 109.415C340.472 106.006 343.284 104.33 347.545 103.733C350.188 103.364 354.506 102.739 355.955 101.773V106.403C355.955 110.977 352.176 114.472 346.864 114.472ZM413.668 90.8068C412.588 82.767 406.111 77.7955 395.088 77.7955C383.923 77.7955 376.565 82.9659 376.594 91.375C376.565 97.9091 380.685 102.142 389.207 103.847L396.764 105.352C400.571 106.119 402.304 107.511 402.361 109.699C402.304 112.284 399.491 114.131 395.259 114.131C390.94 114.131 388.071 112.284 387.332 108.733L375.429 109.358C376.565 117.71 383.668 122.852 395.23 122.852C406.537 122.852 414.634 117.085 414.662 108.477C414.634 102.17 410.514 98.392 402.048 96.6591L394.151 95.0682C390.088 94.1875 388.582 92.7955 388.611 90.6932C388.582 88.0795 391.537 86.375 395.287 86.375C399.491 86.375 401.991 88.6761 402.588 91.4886L413.668 90.8068ZM422.283 122H434.385V78.3636H422.283V122ZM428.362 72.7386C431.97 72.7386 434.925 69.983 434.925 66.6023C434.925 63.25 431.97 60.4943 428.362 60.4943C424.783 60.4943 421.828 63.25 421.828 66.6023C421.828 69.983 424.783 72.7386 428.362 72.7386ZM456.182 96.7727C456.21 91.1477 459.562 87.8523 464.449 87.8523C469.307 87.8523 472.233 91.0341 472.205 96.375V122H484.307V94.2159C484.307 84.0455 478.341 77.7955 469.25 77.7955C462.773 77.7955 458.085 80.9773 456.125 86.0625H455.614V78.3636H444.08V122H456.182V96.7727ZM513.504 139.273C525.976 139.273 534.839 133.591 534.839 122.426V78.3636H522.822V85.6932H522.368C520.749 82.142 517.197 77.7955 509.896 77.7955C500.322 77.7955 492.226 85.2386 492.226 100.097C492.226 114.614 500.095 121.375 509.925 121.375C516.885 121.375 520.777 117.881 522.368 114.273H522.879V122.256C522.879 128.25 519.044 130.58 513.788 130.58C508.447 130.58 505.749 128.25 504.754 125.608L493.561 127.114C495.01 133.989 501.743 139.273 513.504 139.273ZM513.76 112.284C507.822 112.284 504.584 107.568 504.584 100.04C504.584 92.625 507.766 87.4261 513.76 87.4261C519.641 87.4261 522.936 92.3977 522.936 100.04C522.936 107.739 519.584 112.284 513.76 112.284ZM580.777 90.8068C579.697 82.767 573.22 77.7955 562.197 77.7955C551.033 77.7955 543.675 82.9659 543.703 91.375C543.675 97.9091 547.794 102.142 556.317 103.847L563.874 105.352C567.68 106.119 569.413 107.511 569.47 109.699C569.413 112.284 566.601 114.131 562.368 114.131C558.05 114.131 555.18 112.284 554.442 108.733L542.538 109.358C543.675 117.71 550.777 122.852 562.339 122.852C573.646 122.852 581.743 117.085 581.771 108.477C581.743 102.17 577.624 98.392 569.158 96.6591L561.26 95.0682C557.197 94.1875 555.692 92.7955 555.72 90.6932C555.692 88.0795 558.646 86.375 562.396 86.375C566.601 86.375 569.101 88.6761 569.697 91.4886L580.777 90.8068Z" fill="black"/>
<defs>
<filter id="filter0_dd" x="13" y="6" width="630" height="180" filterUnits="userSpaceOnUse" color-interpolation-filters="sRGB">
<feFlood flood-opacity="0" result="BackgroundImageFix"/>
<feColorMatrix in="SourceAlpha" type="matrix" values="0 0 0 0 0 0 0 0 0 0 0 0 0 0 0 0 0 0 127 0"/>
<feOffset dy="3"/>
<feGaussianBlur stdDeviation="7.5"/>
<feColorMatrix type="matrix" values="0 0 0 0 0 0 0 0 0 0 0 0 0 0 0 0 0 0 0.16 0"/>
<feBlend mode="normal" in2="BackgroundImageFix" result="effect1_dropShadow"/>
<feColorMatrix in="SourceAlpha" type="matrix" values="0 0 0 0 0 0 0 0 0 0 0 0 0 0 0 0 0 0 127 0"/>
<feOffset/>
<feGaussianBlur stdDeviation="2.5"/>
<feColorMatrix type="matrix" values="0 0 0 0 0 0 0 0 0 0 0 0 0 0 0 0 0 0 0.1 0"/>
<feBlend mode="normal" in2="effect1_dropShadow" result="effect2_dropShadow"/>
<feBlend mode="normal" in="SourceGraphic" in2="effect2_dropShadow" result="shape"/>
</filter>
</defs>
</svg>
