<svg xmlns="http://www.w3.org/2000/svg" viewBox="0 0 512 512">
	<path
		d="M367.854 59.996h69.135c8.29 0 14.999-6.709 14.999-14.999s-6.709-14.999-14.999-14.999H285.998c-8.29 0-14.999 6.709-14.999 14.999 0 .361.179.661.205 1.014-.569 7.795 4.818 14.84 12.67 15.962 85.073 12.157 153.979 80.063 166.136 165.136 1.069 7.485 7.485 12.875 14.838 12.875.703 0 1.421-.044 2.139-.146 8.202-1.172 13.9-8.773 12.728-16.977-9.987-69.799-52.835-129.086-111.861-162.865z"
		fill="#2b292c" />
	<path
		d="M241.001 44.997c0-8.291-6.709-14.999-14.999-14.999H75.011c-8.291 0-14.999 6.709-14.999 14.999s6.709 14.999 14.999 14.999h70.135C86.119 93.775 42.272 153.062 32.285 222.863c-1.172 8.203 4.526 15.805 12.728 16.977.718.103 1.436.146 2.139.146 7.354 0 13.769-5.391 14.838-12.875 12.156-85.073 81.063-152.979 166.136-165.136 7.853-1.122 13.239-8.168 12.67-15.962.025-.355.205-.655.205-1.016z"
		fill="#57555c" />
	<path
		d="M390.091 491.57L270.098 176.589c-2.098-6-8.099-8.698-14.098-8.698s-12 2.699-14.098 8.698L121.909 491.57c-5.101 13.499 10.198 25.798 22.199 17.998L256 439.673l111.892 69.895c12.301 7.801 27.3-4.498 22.199-17.998z"
		fill="#ff4a4a" />
	<g fill="#1689fc">
		<path
			d="M496.985 299.982h-59.996c-8.291 0-14.999-6.709-14.999-14.999v-59.996c0-8.29 6.709-14.999 14.999-14.999h59.996c8.291 0 14.999 6.709 14.999 14.999v59.996c.001 8.29-6.708 14.999-14.999 14.999zM466.987 89.995c-24.813 0-44.997-20.185-44.997-44.997S442.175 0 466.987 0s44.997 20.185 44.997 44.997-20.184 44.998-44.997 44.998z" />
	</g>
	<g fill="#1ba9ef">
		<path
			d="M45.013 89.995C20.2 89.995.016 69.81.016 44.997S20.2 0 45.013 0 90.01 20.185 90.01 44.997 69.825 89.995 45.013 89.995zM75.011 299.982H15.015c-8.29 0-14.999-6.709-14.999-14.999v-59.996c0-8.29 6.709-14.999 14.999-14.999h59.996c8.29 0 14.999 6.709 14.999 14.999v59.996c0 8.29-6.708 14.999-14.999 14.999z" />
	</g>
	<path
		d="M367.892 509.568L256 439.673V167.89c6 0 12 2.699 14.098 8.698l119.993 314.981c5.101 13.501-9.898 25.8-22.199 17.999z"
		fill="#e61e14" />
	<path
		d="M285.998 0h-59.996c-8.4 0-14.999 6.599-14.999 14.999v59.996c0 8.4 6.599 14.999 14.999 14.999h59.996c8.4 0 14.999-6.599 14.999-14.999V14.999c0-8.4-6.598-14.999-14.999-14.999z"
		fill="#1ba9ef" />
	<path d="M285.998 89.995H256V0h29.998c8.4 0 14.999 6.599 14.999 14.999v59.996c0 8.401-6.598 15-14.999 15z"
		fill="#1689fc" />
</svg>